<?xml version="1.0" encoding="UTF-8" standalone="no"?>
<svg
   width="1200"
   height="1200"
   viewBox="0 0 1200 1200"
   role="img"
   aria-labelledby="title desc"
   version="1.1"
   id="svg38"
   xmlns="http://www.w3.org/2000/svg"
   xmlns:svg="http://www.w3.org/2000/svg">
  <defs
     id="defs42" />
  <title
     id="title">SaniKey logo</title>
  <desc
     id="desc">Three ordered blue medical-document dossiers, a coral dual-ended USB drive, index lines, and the SaniKey wordmark.</desc>
  <!-- Exact flat palette: ivory #FFFCF6, royal #2D61BE, intermediate #1D4385,
       midnight #0B1F3A, muted coral #D56F6B. -->
  <!-- Center the complete pictogram over the wordmark. -->
  <g id="pictogram" transform="translate(80,0)">
  <!-- Rear dossier: midnight blue. -->
  <path
     fill="#0B1F3A"
     d="M 282,128 H 598 Q 650,128 650,180 V 670 Q 650,722 598,722 H 282 Q 230,722 230,670 V 180 Q 230,128 282,128 Z"
     id="path6" />
  <!-- Middle dossier: intermediate blue. -->
  <path
     fill="#1D4385"
     d="M 352,198 H 668 Q 720,198 720,250 V 740 Q 720,792 668,792 H 352 Q 300,792 300,740 V 250 Q 300,198 352,198 Z"
     id="path8" />
  <!-- Front dossier: royal blue. -->
  <path
     fill="#2D61BE"
     d="M 422,268 H 738 Q 790,268 790,320 V 810 Q 790,862 738,862 H 422 Q 370,862 370,810 V 320 Q 370,268 422,268 Z"
     id="path10" />
  <!-- Consultation/index tab. -->
  <rect
     x="772"
     y="470"
     width="38"
     height="82"
     rx="15"
     fill="#D56F6B"
     id="rect12" />
  <!-- Dual-ended USB drive: USB-A at upper left, USB-C at lower right. -->
  <g
     transform="translate(485,410) rotate(43) scale(1.25)"
     id="g24">
    <!-- USB-A plug protruding from the compact drive body. -->
    <path
       id="usb-a-head"
       style="fill:#d56f6b"
       d="M 0,16 H 73 V 60 H 0 Z" />
    <!-- Two square holes across the connector face, perpendicular to its axis. -->
    <path
       id="usb-a-hole-1"
       style="fill:#2d61be"
       d="M 15,23 H 27 V 35 H 15 Z" />
    <path
       id="usb-a-hole-2"
       style="fill:#2d61be"
       d="M 15,41 H 27 V 53 H 15 Z" />
    <!-- Short, broad body inspired by a compact swivel dual-ended drive. -->
    <path
       id="usb-body"
       style="fill:#d56f6b"
       d="M 58,0 H 168 Q 184,0 184,16 V 60 Q 184,76 168,76 H 58 Q 46,76 46,64 V 12 Q 46,0 58,0 Z" />
    <!-- USB-C head: straight shoulder at the neck; only the two outer corners are rounded. -->
    <path
       id="usb-c-head"
       style="fill:#d56f6b"
       d="M 174,23 H 201 Q 209,23 209,31 V 45 Q 209,53 201,53 H 174 Z" />
  </g>
  <!-- Ordered index: separate, thin, and subordinate. -->
  <rect
     x="590"
     y="704"
     width="160"
     height="10"
     rx="5"
     fill="#D56F6B"
     id="rect26" />
  <rect
     x="590"
     y="738"
     width="133"
     height="10"
     rx="5"
     fill="#D56F6B"
     id="rect28" />
  <rect
     x="590"
     y="772"
     width="98"
     height="10"
     rx="5"
     fill="#D56F6B"
     id="rect30" />
  </g>
  <!-- Wordmark. DejaVu Sans Bold is converted to outlines in the delivered SVG. -->
  <g
     aria-label="SaniKey"
     id="text36"
     style="font-weight:700;font-size:156px;font-family:'DejaVu Sans', sans-serif;letter-spacing:-5;text-anchor:middle">
    <path
       d="m 354.56836,969.85547 v 24.07031 q -9.36914,-4.18945 -18.28125,-6.32226 -8.91211,-2.13282 -16.83399,-2.13282 -10.51171,0 -15.53906,2.89453 -5.02734,2.89454 -5.02734,8.98829 0,4.57028 3.35156,7.16018 3.42774,2.5136 12.33984,4.3418 l 12.49219,2.5136 q 18.9668,3.8086 26.96485,11.5782 7.99804,7.7695 7.99804,22.0898 0,18.8145 -11.19726,28.0313 -11.1211,9.1406 -34.04883,9.1406 -10.81641,0 -21.70899,-2.0567 -10.89257,-2.0566 -21.78515,-6.0937 v -24.7559 q 10.89258,5.7891 21.02344,8.7598 10.20703,2.8945 19.65234,2.8945 9.59766,0 14.70117,-3.1992 5.10352,-3.1992 5.10352,-9.1406 0,-5.332 -3.50391,-8.2266 -3.42773,-2.8945 -13.78711,-5.1797 l -11.34961,-2.5136 q -17.0625,-3.6563 -24.98437,-11.6543 -7.84571,-7.9981 -7.84571,-21.55667 0,-16.98633 10.96875,-26.12696 10.96875,-9.14062 31.53516,-9.14062 9.36914,0 19.27148,1.44727 9.90235,1.37109 20.49024,4.18945 z"
       style="fill:#1d4385"
       id="path49" />
    <path
       d="m 419.79883,1041.6094 q -8.53125,0 -12.87305,2.8945 -4.26562,2.8945 -4.26562,8.5313 0,5.1796 3.42773,8.1503 3.50391,2.8946 9.67383,2.8946 7.69336,0 12.94922,-5.4844 5.25586,-5.5605 5.25586,-13.8633 v -3.123 z m 41.66601,-10.2832 V 1080 H 433.9668 v -12.6445 q -5.48438,7.7695 -12.33985,11.3496 -6.85547,3.5039 -16.68164,3.5039 -13.2539,0 -21.55664,-7.6934 -8.22656,-7.7695 -8.22656,-20.1093 0,-15.0059 10.2832,-22.0137 10.35938,-7.0078 32.44922,-7.0078 h 16.07227 v -2.1328 q 0,-6.4747 -5.10352,-9.4454 -5.10351,-3.0468 -15.91992,-3.0468 -8.75977,0 -16.30078,1.7519 -7.54102,1.752 -14.01563,5.2559 v -20.79494 q 8.75977,-2.13282 17.59571,-3.19922 8.83593,-1.14258 17.67187,-1.14258 23.08008,0 33.28711,9.14064 10.2832,9.0644 10.2832,29.5547 z"
       style="fill:#1d4385"
       id="path51" />
    <path
       d="M 567.59961,1028.0508 V 1080 h -27.42188 v -8.4551 -31.3066 q 0,-11.0449 -0.5332,-15.2344 -0.45703,-4.1894 -1.67578,-6.1699 -1.59961,-2.666 -4.3418,-4.1133 -2.74218,-1.5234 -6.24609,-1.5234 -8.53125,0 -13.40625,6.6269 -4.875,6.5508 -4.875,18.2051 V 1080 h -27.26953 v -85.3125 h 27.26953 v 12.4922 q 6.16992,-7.46486 13.10156,-10.96876 6.93164,-3.58008 15.31055,-3.58008 14.77734,0 22.39453,9.06444 7.69336,9.0645 7.69336,26.3555 z"
       style="fill:#1d4385"
       id="path53" />
    <path
       d="M 587.88867,994.6875 H 615.1582 V 1080 h -27.26953 z m 0,-33.21094 h 27.26953 v 22.24219 h -27.26953 z"
       style="fill:#1d4385"
       id="path55" />
    <path
       d="m 637.58008,966.27539 h 29.32617 v 41.51371 l 42.27539,-41.51371 h 34.04883 l -54.76758,53.85351 60.4043,59.8711 h -36.71485 l -45.24609,-44.7891 V 1080 h -29.32617 z"
       style="fill:#d56f6b"
       id="path57" />
    <path
       d="m 834.66406,1037.1152 v 7.7696 H 770.9082 q 0.99024,9.5976 6.93164,14.3965 5.94141,4.7988 16.60547,4.7988 8.60742,0 17.59571,-2.5137 9.06445,-2.5898 18.58593,-7.7695 v 21.0234 q -9.67383,3.6563 -19.34765,5.4844 -9.67383,1.9043 -19.34766,1.9043 -23.15625,0 -36.0293,-11.7305 -12.79687,-11.8066 -12.79687,-33.0586 0,-20.8711 12.56836,-32.8301 12.64453,-11.95894 34.73437,-11.95894 20.10938,0 32.14453,12.11134 12.11133,12.1113 12.11133,32.373 z m -28.03125,-9.0644 q 0,-7.7696 -4.57031,-12.4922 -4.49414,-4.7988 -11.80664,-4.7988 -7.92188,0 -12.87305,4.4941 -4.95117,4.418 -6.16992,12.7969 z"
       style="fill:#d56f6b"
       id="path59" />
    <path
       d="m 839.10937,994.6875 h 27.26954 l 22.92773,57.8906 19.5,-57.8906 h 27.26953 l -35.87695,93.3867 q -5.4082,14.2442 -12.64453,19.8809 -7.16016,5.7129 -18.9668,5.7129 h -15.76758 v -17.9004 h 8.53125 q 6.93164,0 10.05469,-2.209 3.19922,-2.209 4.95117,-7.9219 l 0.76172,-2.3613 z"
       style="fill:#d56f6b"
       id="path61" />
  </g>
</svg>
